<svg width="1040" height="200" viewBox="0 0 1040 201" xmlns="http://www.w3.org/2000/svg" xml:space="preserve" style="fill-rule:evenodd;clip-rule:evenodd;stroke-linejoin:round;stroke-miterlimit:2"><g transform="matrix(.8125 0 0 .99896 -1267.5 -767.097)"><path style="fill:none" d="M1560 768h1280v200.208H1560z"/><clipPath id="a"><path d="M1560 768h1280v200.208H1560z"/></clipPath><g clip-path="url(#a)"><path d="M944.109 2288.65c17.972-.24 16.571-20.33 15.826-33.09l-6.71-544.15c-.745-18.73-21.583-16.11-34.522-13.74-39.269 4.48-78.538 8.96-117.807 13.43-19.722 4.04-13.271 26.8-15.293 41.4l-6.031 151.14c-14.629-5.77-53.051 12.5-50.332-10.79-.912-66.41-.928-132.87-2.399-199.24-5.025-18.4-26.112-10.82-39.831-10.7-48.475 3.75-96.95 7.51-145.425 11.26-20.295 3.25-13.644 26.14-14.693 40.63.948 189.06 1.066 378.17 2.533 567.21 5.65 18.46 26.996 11.45 41.421 13.46 37.178 1.03 74.356 2.07 111.533 3.11 20.693-1.25 16.088-24.83 18.353-39.22l15.998-194.85h48.473c-2.416 63.33-5.7 126.66-7.575 189.98 4.277 18.88 26.333 12.19 40.36 13.5l146.121.66Z" style="fill:#fff" transform="matrix(.29634 0 0 .24103 1405.12 384.512)"/><path d="M1618.75 887.976h11.895l-2.302 45.094c-.053 1.046.418 2.063 1.306 2.818.888.757 2.116 1.186 3.402 1.19l53.08.186c1.268.005 2.486-.405 3.38-1.138.893-.732 1.387-1.725 1.372-2.757l-2.05-137.487c-.017-1.084-.594-2.111-1.591-2.832-.997-.718-2.321-1.063-3.647-.947l-42.373 3.705c-2.332.205-4.129 1.766-4.222 3.673l-2.097 42.814h-12.413l-.635-49.927c-.013-1.063-.567-2.073-1.529-2.793-.962-.719-2.247-1.082-3.55-1.005l-52.398 3.15c-2.478.15-4.392 1.832-4.383 3.854l.684 144.156c.01 2.08 2.05 3.779 4.607 3.832l43.284.928c2.51.053 4.635-1.497 4.84-3.533l5.34-52.98Zm-.077-7.03c-4.494 0-8.236 2.808-8.599 6.452l-4.975 49.984-35.792-.766-.655-138.104 44.604-2.68.574 45.137c.072 5.72 4.753 8.356 8.66 8.356h12.413c4.64 0 8.451-2.979 8.636-6.75l1.963-40.07 34.74-3.039 1.95 130.755-45.044-.159 2.116-41.808c.096-1.912-.769-3.77-2.396-5.149-1.627-1.378-3.875-2.16-6.225-2.16h-11.97Z"/><path d="M1501.52 1800.28c11.65-17.5-10.4-29.56-19.47-42.05-21.98-24.17-43.96-48.34-65.94-72.5-17.07-15.13-29.71 8.01-40.36 18.79-45.88 51.38-91.76 102.76-137.64 154.13-40.44-49.33-79.53-99.93-120.82-148.47-15.03-6.46-30.28 4.99-45.26 7.84-31.56 10.12-63.48 19.27-94.814 30.01-17.126 11.1-1.526 28.38 6.814 39.43 51.1 70.74 102.19 141.48 153.29 212.22.5 101.19 1.01 202.38 1.51 303.57 2.32 22.12 26.89 14.37 41.88 14.3l135.06-8.43c21.27-3.26 13.39-27.01 13.54-41.82-4.77-82.21-9.55-164.43-14.32-246.64 62.17-73.46 124.35-146.92 186.53-220.38Z" style="fill:#fff" transform="matrix(.29634 0 0 .24103 1405.12 384.512)"/><path d="M1851.312 818.428c1.538-1.477 1.487-3.654-.119-5.08l-26.424-23.535c-.904-.802-2.184-1.258-3.52-1.25-1.34.004-2.615.472-3.504 1.284l-45.725 41.647-34.772-35.016c-1.203-1.21-3.177-1.712-5.011-1.278l-38.955 9.265c-1.479.352-2.654 1.266-3.15 2.452-.498 1.185-.255 2.494.65 3.507l50.135 56.065.447 74.174c.006 1.055.545 2.065 1.494 2.788.948.723 2.22 1.097 3.517 1.034l49.892-2.41c2.605-.125 4.593-1.943 4.442-4.061l-4.676-66.468 55.279-53.118Zm-79.292 20.095c-2.569 0-5.518-1.155-7.106-3.035a11.314 11.314 0 0 1-.593-.56l-32.161-32.384-31.118 7.4 46.862 52.411c.85.947 1.393 2.054 1.58 3.216 0 0 .077 1.058.089 2.96l.414 68.738 41.87-2.022-4.45-63.299c-.149-2.082.85-4.112 2.723-5.536l52.363-50.39-21.186-18.865s-32.994 30.061-41.037 37.374c-2.133 1.94-4.551 3.992-8.25 3.992Z"/><path d="M1877.56 1910.23c3.43-53.44 12.39-113.47-21.12-159.93-22.73-32.77-59.41-53.84-98.8-58.9-73.19-12.24-147.85-12.05-221.81-10.5-17.7 4.85-11.36 25.59-12.55 39.15-.25 194.22-.49 388.44-.74 582.66.13 17.18 19.29 16.62 31.71 16.51 42.39 1.17 84.81 3.24 127.19 3.85 18.39-4.23 12.15-25.61 13.34-39.34.35-74.43.71-148.87 1.07-223.3 35-9.22 72.25-12.87 105.05-28.7 41.96-26.51 68.14-73.4 76.66-121.5Zm-202.8-.86.36-104.92c22.36 1.35 55.65 2.98 61.75 29.52 10.53 21.59 7.14 48.29-8.12 66.71-15.05 10.92-36.31 9.02-53.99 8.69Z" style="fill:#fff" transform="matrix(.29634 0 0 .24103 1405.12 384.512)"/><path d="M1962.75 844.929c.252-1.61 1.114-13.657 1.114-16.944 0-13.864-7.02-24.563-21.025-32.112-4.09-2.227-11.199-4.086-21.425-5.315-14.118-1.694-34.607-2.372-61.461-1.996-2.581.037-4.65 1.745-4.653 3.842l-.225 147.123c-.003 2.085 2.033 3.792 4.596 3.852l44.013 1.111c1.28.029 2.519-.364 3.437-1.09.916-.727 1.432-1.725 1.429-2.766l.352-58.5c14.005-2.56 26.748-4.768 30.182-6.44 20.454-9.964 23.666-30.765 23.666-30.765Zm-62.824 92.434-36.204-.916.22-140.902c24.359-.256 43.096.393 56.21 1.97 8.495 1.019 14.478 2.35 17.877 4.198.012.007.021.014.033.02 11.448 6.17 17.158 14.924 17.158 26.252 0 3.114-.806 14.531-1.043 16.057 0 0-2.543 17.342-19.532 25.619-3.135 1.528-14.852 3.278-27.636 5.613-3.93.719-6.73 3.55-6.751 6.826l-.332 55.263Zm-5.915-93.67c-.018 3.702 3.497 6.78 8.037 7.038 8.47.482 13.039-.511 16.802-2.078 2.875-1.196 5.456-3.444 7.24-6.252 1.95-3.066 2.97-6.754 3.135-8.926.148-1.913-1.668-7.469-3.633-10.846-1.645-2.825-3.912-4.478-4.91-4.955-8.316-3.97-13.06-4.23-17.843-4.267-2.3-.016-4.513.714-6.152 2.028-1.636 1.316-2.563 3.106-2.57 4.977l-.106 23.28Zm8.641.026.107-23.28c3.64.026 7.225.279 13.546 3.297 1.176.561 4.439 7.416 4.294 9.3-.19 2.49-2.086 7.863-5.687 9.36-2.738 1.14-6.096 1.673-12.26 1.323Z"/><path d="M2275.72 2172.94c.23-17.74-19.55-17.13-32.22-16.48-53.39-.21-106.79-.42-160.18-.64l.87-91.23c40.39-5.16 80.78-10.31 121.17-15.47 18.66-4.5 12.78-26.2 15.01-40.41.42-20.77 3.97-41.79 2.2-62.4-7.26-15.58-26.91-9.35-40.64-11.83l-109.97-6.06c-.28-25.92-.55-51.84-.82-77.76 42.02-4.29 84.04-8.59 126.06-12.88 19.32-4.05 13.11-26.23 14.93-40.58.81-29.85 2.49-59.71 2.76-89.55-4.03-18-25.17-12.56-38.72-14.44-86.99-4.05-173.98-8.99-260.98-12.5-18.65 3.97-12.47 25.62-13.68 39.42-1.48 194.3-2.96 388.61-4.43 582.92.15 17.79 19.96 16.72 32.64 15.72 111.19-2.67 222.45-4.53 333.61-7.7 18.58-5.99 10.89-27.33 12.48-41.87l-.09-96.26Z" style="fill:#fff" transform="matrix(.29634 0 0 .24103 1405.12 384.512)"/><path d="M2080.74 907.247c.036-1.037-.444-2.04-1.33-2.784-.886-.745-2.104-1.17-3.379-1.172l-52.306-.17.258-19.982 35.907-3.729c2.252-.274 3.941-1.815 4.024-3.663l1.37-21.642c.091-2.083-1.87-3.85-4.431-3.98l-40.495-1.814-.243-16.735 37.354-3.104c2.323-.227 4.095-1.798 4.17-3.698l1.137-28.906c.083-2.102-1.92-3.869-4.501-3.967l-85.888-3.336c-1.286-.05-2.543.33-3.476 1.048-.937.721-1.47 1.719-1.482 2.767l-1.366 148.234c-.009 1.04.5 2.04 1.41 2.77.91.73 2.146 1.128 3.423 1.106l105.251-1.853c2.522-.044 4.558-1.688 4.629-3.739l-.036-31.651Zm-27.63-85.478.904-22.997-77.97-3.027-1.307 141.647 97.392-1.716-.027-25.368-48.413-.157.18-.706c-2 .236-3.561.132-3.561.132-3.355-1.174-5.393-3.91-5.216-6.8l-.003-.29c.042-3.235.25-16.183.25-19.42 0-2.078 1.588-6.192 8.555-7.005.293-.033 31.554-3.275 31.554-3.275l.998-15.819s-33.542-1.639-36.565-1.639c-3.02 0-5.242-1.747-5.242-1.747-1.938-1.39-2.966-3.375-2.919-5.392l-.012-.265c-.038-2.712-.237-16.267-.237-16.267s-.551-6.508 8.81-7.163c32.876-2.3 32.829-2.726 32.829-2.726Z"/><path d="M2673.15 2255.05c16.2-10.01 3.4-26.98-5.82-36.62-47.7-59.29-95.39-118.58-143.09-177.87 55.04-19.85 100.55-67.41 109.83-126.31 8.46-47.18 13.83-99.64-13.24-142.18-24.72-41.19-63.91-75.78-112.35-84.4-56.9-12-116.09-7.91-172.65 3.96-18.17 5.72-11.65 27.24-13.94 41.7-8.55 183.66-17.1 367.32-25.66 550.97-.61 17.4 18.8 17.54 31.32 17.29 40.78 1.36 81.55 3.37 122.32 4.32 17.16-2.64 13.6-21.45 11.18-33.63-6.83-47.89-13.65-95.77-20.48-143.66 33.92 61.51 67.83 123.01 101.74 184.51 13.63 14.25 29.3-2.67 42.57-8.54 29.42-16.51 58.85-33.03 88.27-49.54Zm-223.8-326.16c1.27-40.91 2.55-81.81 3.82-122.72 26.51-2.24 60.24 4.73 56.94 38.77-.97 26.42 2.85 58.34-17.36 78.72-11.83 12.45-28.82 3.96-43.4 5.23Z" style="fill:#fff" transform="matrix(.29634 0 0 .24103 1405.12 384.512)"/><path d="M2198.514 928.04c1.198-.562 2.033-1.52 2.285-2.625.255-1.106-.098-2.244-.963-3.121l-45.45-45.952c19.224-6.163 30.147-17.084 33-32.594v-.002c1.11-6.053 1.648-10.69 1.648-13.908 0-10.834-6.356-21.282-19.505-31.167-8.576-6.56-22.572-10.111-42.18-10.111-10.343 0-20.765.892-31.267 2.675-2.113.36-3.66 1.837-3.758 3.59l-7.974 140.265c-.119 2.097 1.849 3.885 4.424 4.018l42.602 2.225c1.31.067 2.596-.309 3.55-1.042.954-.735 1.493-1.757 1.482-2.824l-7.361-37.904 29.462 43.48c1.458 1.488 4.036 1.883 6.06.931l33.945-15.934Zm-19.674-85.33c-2.38 12.928-11.598 21.954-27.621 27.093-2.558.82-4.481 2.579-5.186 4.741-.703 2.16-.101 4.464 1.62 6.204l42.588 43.06-26.481 12.43-26.73-39.365c-1.677-3.293-6.114-5.043-10.33-4.076-4.214.966-6.876 4.346-6.191 7.862l6.487 33.402-33.836-1.767 7.657-134.654a174.643 174.643 0 0 1 26.532-2.05c16.781 0 28.92 2.587 36.26 8.203.017.014.035.026.056.04 11.033 8.297 16.725 16.914 16.725 26.005 0 2.98-.524 7.27-1.55 12.871Zm-21.59-6.947.04-.06.193-.15c.418-6.467-1.31-11.73-4.963-15.838-4.07-4.57-6.715-5.158-10.319-5.466-1.488-.128-3.577.115-7.657-.357-2.43-.282-4.893.292-6.772 1.574-1.881 1.282-3.002 3.155-3.085 5.15l-1.132 27.572c-.077 1.904.798 3.752 2.427 5.124 1.63 1.369 3.874 2.14 6.218 2.14 3.742-.002 5.221.379 6.258.41 2.65.084 4.617.099 9.64-3.285 5.628-3.79 8.855-9.417 9.385-16.993l-.234.179Zm-25.056 12.658 1.132-27.568c8.499.98 8.694-.945 12.191 2.984 2.608 2.933 3.633 6.732 3.337 11.35-.37 5.293-2.338 9.327-6.268 11.976-4.146 2.791-2.498 1.254-10.392 1.258Zm16.654-6.21.006.004-.006-.005Z"/><path d="M2849.23 1863.79c21.14 13.7 24.69 42.42 32.94 64.6 9.11 15.9 27.02 4.11 39.87.79 34.48-11.37 68.95-22.73 103.42-34.1 22.63-18.42 1.36-54.22-2.68-78.22-18.3-56.26-58.89-109.84-118.83-124.56-56.6-15.81-123.05-3.64-163.44 41.21-51.66 56.94-70.26 135.29-79.17 209.66-8.19 89.83-10.08 185.26 28.74 268.88 23.85 53.62 74.41 97.79 134.8 100.87 62.67 5.04 129.8-19.45 166.19-72.55 29.47-42.96 48.46-94.95 48.18-147.27-7.41-15.01-26.82-11.87-40.71-16.41-28.82-5.78-57.65-11.56-86.48-17.34-23.43 5.8-16.4 42.86-33.97 58.99-15.56 35.35-51.43.9-55.87-23.32-4.94-51.13-5.24-102.9 5.04-153.43 5.49-26.13 6.08-55.44 21.97-77.8Z" style="fill:#fff" transform="matrix(.29634 0 0 .24103 1405.12 384.512)"/><path d="M2249.464 834.794c.495.022.94.263 1.402.58.726.495 1.41 1.184 2.092 2.035 2.234 2.781 4.231 7.028 6.113 12.702.341 1.024 1.183 1.887 2.332 2.389a5.713 5.713 0 0 0 3.734.26l37.588-10.19c2.098-.57 3.432-2.245 3.212-4.035-1.117-9.09-3.458-16.94-6.97-23.563-.009-.015-.017-.03-.023-.046-9.17-16.677-24.16-25.41-44.834-26.359l-.026-.002c-22.949-.947-40.018 8.576-50.828 28.998-7.957 14.85-12.008 34.067-12.008 57.673 0 21.26 4.816 37.923 14.165 50.035 9.91 12.841 23.793 19.219 41.597 19.219 2.172 0 4.425-.133 6.763-.4 21.917-1.9 37.504-11.774 46.59-29.77 3.666-7.139 5.93-15.57 6.727-25.302.157-1.924-1.458-3.645-3.781-4.028l-34.856-5.744c-2.557-.421-5.05.919-5.574 2.994-1.437 5.676-3.248 9.96-5.607 12.796-1.57 1.89-3.292 3.032-5.479 3.032-.412 0-.824-.06-1.236-.173a6.888 6.888 0 0 0-.213-.053c-4.386-1.005-6.659-4.428-7.785-9.735a3.276 3.276 0 0 0-.038-.164c-.723-2.705-1.032-8.116-1.032-16.229 0-7.566.815-15.194 2.44-22.88.002-.01.002-.022.005-.032 1.05-5.237 2.28-9.19 3.781-11.837.353-.617.712-1.147 1.094-1.583.19-.215.513-.48.655-.588Zm4.17-39.208c17.3.798 29.728 8.238 37.406 22.191 2.866 5.409 4.84 11.721 5.945 18.938l-30.716 8.327c-1.881-4.982-3.926-8.802-6.075-11.477-1.209-1.51-2.477-2.69-3.763-3.57-2.083-1.424-4.285-2.123-6.505-2.22-2.373-.106-4.694.59-6.419 1.924-.379.294-1.226 1.021-1.733 1.598a16.535 16.535 0 0 0-1.903 2.718c-1.736 3.057-3.253 7.597-4.465 13.64-1.707 8.084-2.558 16.103-2.558 24.06 0 8.763.427 14.637 1.203 17.623 1.844 8.65 6.721 13.582 13.863 15.25a15.1 15.1 0 0 0 3.88.511c4.853 0 9.15-1.93 12.638-6.125 2.388-2.87 4.433-6.936 6.048-12.222l27.708 4.567c-.89 7.709-2.812 14.474-5.8 20.29a.266.266 0 0 0-.02.041c-7.729 15.308-20.865 23.833-39.511 25.448-.1.01-.199.019-.3.031-1.917.22-3.766.333-5.547.333-14.69 0-26.101-5.332-34.277-15.927-8.642-11.198-12.84-26.646-12.84-46.3 0-22.449 3.721-40.742 11.287-54.864l.015-.03c9.094-17.177 23.135-25.548 42.438-24.755Zm-18.225 52.057-.006.026a.072.072 0 0 0 .006-.026Z"/><path d="M3468.24 2296.94c17.87-.23 16.6-20.18 15.83-32.9-2.24-184.56-4.48-369.12-6.71-553.68-.73-18.78-21.49-16.64-33.9-11.58-32.58 8.4-65.3 16.24-97.78 24.99-13.91 10.04-7.58 29.19-9.95 44.02-1.96 49.07-3.91 98.15-5.87 147.22-35.59-.57-71.18-1.15-106.77-1.72-.95-70.12-1-140.3-2.51-210.39-4.92-17.85-25.9-11.27-39.6-12.67l-104.3-.75c-20.19 3.19-13.69 25.92-14.7 40.33.74 191.25 1.48 382.5 2.21 573.75.92 19.03 22.02 15.9 35.32 16.38 31.59.57 63.19 1.94 94.76 2.02 18.33-4.84 12.6-26.08 15.34-40.21l15.9-194.03c33.3 1.23 66.6 2.47 99.9 3.7-2.41 63.44-5.7 126.88-7.57 190.31 4.19 18.74 26.09 12.32 40.03 13.74l110.37 1.47Z" style="fill:#fff" transform="matrix(.29634 0 0 .24103 1405.12 384.512)"/><path d="m2364.932 891.344 21.138.636-2.122 41.567c-.103 1.999.8 3.946 2.499 5.392 1.692 1.442 4.03 2.263 6.478 2.278l39.91.431c.012 0 .024.003.039.003 2.427.007 4.756-.776 6.466-2.18 1.71-1.4 2.655-3.301 2.626-5.273l-2.051-137.489c-.03-2.073-1.135-4.04-3.043-5.418-1.909-1.376-4.442-2.034-6.976-1.813a5.366 5.366 0 0 0-.599.087l-31.904 6.57c-4.288.51-7.553 3.438-7.728 6.993l-1.93 39.381-23.212-.304-.592-46.503c-.027-2.032-1.085-3.968-2.925-5.344-1.796-1.342-4.178-2.037-6.608-1.933l-37.508-.222c-.119 0-.234.005-.35.01-4.744.287-8.404 3.507-8.386 7.373l.681 144.158c.021 3.98 3.924 7.226 8.816 7.332l33.027.658c4.795.101 8.861-2.866 9.252-6.76l5.002-49.63Zm67.986 43.276-39.925-.434a.45.45 0 0 1-.297-.104.293.293 0 0 1-.112-.243l2.27-44.47c.056-1.096-.427-2.164-1.343-2.966-.912-.808-2.184-1.283-3.53-1.324-9.467-.289-28.848-.884-28.848-.884-4.685-.19-4.477 3.225-4.477 3.225l-5.34 52.98c-.018.176-.202.31-.418.306l-33.018-.658c-.223-.005-.4-.152-.4-.333l-.685-144.156c0-.151.125-.282.3-.323l37.403.22c.116 0 .234-.003.35-.01a.468.468 0 0 1 .308.087c.083.063.13.15.134.243 0 0 .512 40.44.616 48.526a47.01 47.01 0 0 0 .05 1.796c.267 1.74 2.066 3.054 4.22 3.083l31.631.412.077.002c2.32 0 4.226-1.492 4.318-3.376l2.098-42.812c.009-.166.163-.301.368-.32.201-.017.4-.046.598-.087l31.69-6.525a.466.466 0 0 1 .179.075.308.308 0 0 1 .136.246l2.05 137.487a.299.299 0 0 1-.118.238.459.459 0 0 1-.264.099h-.02Z"/><path d="M3962.35 2318.95c21.65 1.92 19.29-22.41 14.1-36.16-45.34-196.1-90.68-392.2-136.02-588.31-6.05-18.25-27.58-10.94-42.11-12.67-45.47-.43-90.94-.85-136.41-1.28-19.64 1.75-16.69 24.85-21.19 38.91-38.69 187.37-77.38 374.73-116.07 562.09-3.22 18.95 18.32 20.31 31.69 20.46 39.91 3.14 79.83 6.28 119.74 9.41 21.04-.37 17.15-24.53 19.99-38.99 4.64-39.28 9.29-78.55 13.93-117.83l57.74-2.91c3.18 41.68 6.37 83.36 9.56 125.04 3.32 18.94 25.71 14.91 39.84 18.82 48.4 7.8 96.81 15.61 145.21 23.42Zm-201.69-319.12h-29.89l18.24-110.11c3.89 36.7 7.77 73.41 11.65 110.11Z" style="fill:#fff" transform="matrix(.29634 0 0 .24103 1405.12 384.512)"/><path d="m2520.404 904.14-.498-7.029m-17.656-32.085-.006.026.003.003c-.605 4.36 3.055 8.5 8.449 8.5h8.854c2.45 0 4.79-.845 6.428-2.325 1.639-1.482 2.427-3.461 2.169-5.443l-3.452-26.539c-.454-3.497-4.019-6.185-8.34-6.288-4.323-.104-8.075 2.407-8.783 5.878 0 0-4.377 21.497-5.254 25.797l-.068.39Zm17.3 1.501h-8.854l5.405-26.539 3.45 26.54Z"/><path d="m2520.99 910.267 2.259 23.999c.165 1.783 1.822 3.24 3.997 3.509l53.309 6.672c1.55.192 3.114-.249 4.184-1.181 1.067-.933 1.496-2.237 1.147-3.478l-41.461-147.863c-.486-1.738-2.38-2.977-4.57-2.994l-50.804-.371c-2.264-.014-4.226 1.275-4.68 3.08l-35.993 143.787c-.27 1.085.045 2.21.866 3.093.818.88 2.065 1.431 3.423 1.513l43.055 2.594c2.527.152 4.75-1.34 5.05-3.384l5.001-34.414 14.63-.69.587 6.128Zm-1.084-13.158-14.23.682-.178.012c-2.27.058-4.478.844-6.087 2.268-1.2 1.06-2.015 2.5-2.223 3.931-4.53 31.295-4.56 31.39-4.56 31.39l-34.894-2.102 34.464-137.675 44.487.323 39.496 140.849-44.552-5.575-2.519-26.776c-.409-5.678-4.448-7.51-9.204-7.327Z"/><path d="M4350.73 2178.82c-.01-17.2-19.12-16.79-31.55-16.42l-164.02-3.3c5.09-147.41 10.98-294.82 15.56-442.22-3.8-18.4-24.7-12.14-38.2-12.77l-112.17 2.43c-18.8 4.51-12.27 25.88-13.46 39.97v560.83c.2 17.36 19.45 16.67 31.94 15.66 101.91-2.18 203.88-3.53 305.76-6.22 17.71-4.66 11.19-24.92 11.32-38.21-1.73-33.25-3.45-66.5-5.18-99.75Z" style="fill:#fff" transform="matrix(.29634 0 0 .24103 1405.12 384.512)"/><path d="m2640.934 901.472 4.504-102.114c.151-2.213-.928-4.365-2.946-5.86-1.952-1.445-4.581-2.123-7.192-1.862l-38.885.684a5.87 5.87 0 0 0-.587.043c-4.395.57-7.63 3.652-7.63 7.272v141.008c0 1.977.977 3.871 2.714 5.257 1.736 1.384 4.083 2.143 6.513 2.104l94.316-1.482c4.901-.077 8.834-3.312 8.878-7.298 0-.07-.003-.143-.006-.213l-1.878-29.439v.012c-.018-1.916-.952-3.755-2.611-5.121-1.683-1.391-3.977-2.18-6.374-2.194l-48.816-.797Zm49.156 8.163c0 .072 0 .142.006.215l1.876 29.362c-.032.159-.198.28-.4.282l-94.313 1.482a.469.469 0 0 1-.296-.097.306.306 0 0 1-.122-.236V799.635c0-.125.086-.236.217-.294l38.69-.682c.195-.005.39-.02.586-.043a.477.477 0 0 1 .341.082c.092.07.14.168.134.267-.003.034-.006.068-.006.099l-4.662 105.693c-.335 3.897 4.229 3.67 4.229 3.67l53.246.873h.065c.11 0 .214.036.29.099.078.063.12.15.12.236Z"/><path d="M4800.98 1760.22c10.1-16.49-9.79-25.31-22.43-29.45-34.99-14.76-69.97-29.52-104.96-44.29-18.37-5.74-24.5 16.15-33.94 27.13-38.11 55.21-76.21 110.42-114.32 165.63 2.06-49.3 4.12-98.61 6.19-147.91-2.51-19.75-25.64-15.07-39.93-18.37-37.1-4.33-74.13-9.8-111.27-13.41-18.43 2.82-13.16 23.84-13.65 37.05 1.93 173.28 3.85 346.56 5.78 519.84 2.11 19.9 25 14.92 39.13 17.32l88.3 7.17c20.95-.37 16.07-23.54 16.48-37.59l-.3-84.52c42.76 50.77 84.58 102.44 127.94 152.64 15.13 10.24 25.19-7.78 32.7-18.21 26.48-35.93 52.97-71.87 79.45-107.81 9.86-16.58-10.48-27.22-19.17-38.7-39.81-42.16-79.61-84.32-119.41-126.48 61.13-86.68 122.27-173.36 183.41-260.04Z" style="fill:#fff" transform="matrix(.29634 0 0 .24103 1405.12 384.512)"/><path d="m2743.757 908.11.104 24.466c-.071 1.02-.64 1.976-1.58 2.654-.939.68-2.175 1.027-3.428.966l-34.103-2.273c-2.477-.123-4.418-1.78-4.445-3.798l-1.822-134.151c-.018-1.097.542-2.143 1.535-2.883.992-.74 2.326-1.099 3.665-.99l40.483 4.126c2.383.193 4.214 1.805 4.259 3.755l-1.873 36.658 39.063-46.361c1.263-1.543 3.696-2.136 5.79-1.41l36.45 12.598c1.295.448 2.28 1.343 2.682 2.44.403 1.096.187 2.282-.595 3.236l-55.487 64.448 41.218 35.764c1.852 1.311 2.16 3.56.708 5.172l-27.337 30.39c-.848.942-2.175 1.52-3.612 1.57-1.435.054-2.819-.428-3.767-1.308l-37.91-37.222.002 2.152Zm6.66-6.65 34.62 34.006 22.44-24.944-39.328-34.122c-3.043-2.743-3.239-6.166-.756-8.86l52.636-61.14-29.059-10.043-37.288 44.258c-1.612 1.913-4.28 3.056-7.13 3.056 0 0-8.635-.465-8.635-7.332 0-6.87 1.712-33.49 1.712-33.49l-32.455-3.31 1.734 127.61 26.294 1.751-.098-22.945s-.634-4.582 5.687-6.438c5.873-1.726 9.625 1.942 9.625 1.942Z"/></g></g></svg>
