<svg viewBox="0 0 768 768" xmlns="http://www.w3.org/2000/svg" xml:space="preserve" style="fill-rule:evenodd;clip-rule:evenodd;stroke-linecap:round"><path style="fill:none" d="M-.797 556.46h529.441v529.441H-.797z" transform="translate(1.157 -807.194) scale(1.45059)"/><path d="M-6.26-31.01 47.11-64.6l16.49-9.32-19.9 51.4-5.45 7.34 1.77 6.8 22.75-1.3 75.25-23.83 8.98-.69-61.63 52.29-4.59 4.96 80.76 12.89 5.68 7.54-26.72 5.1-49.82 9.69-9.11 4.05 60.27 46.98-1.66 5.45.29-1.62-18.81 4.36-49.24-15.13-13.21 3.35 57.59 56.8-88.57-26.78-25.18-4.03 13.98 19.07 26.13 33.24 10.99 22.87 6.01 17.51-2.11 2.37-24.04-13.17-69.96-46.56-12.48-6.41-.29 2.42-4.71 16.89-19.99 67.21-.22-15.8-14.82-34.42-10.49-27.18-5.52-10.71-42.81 72.41-7.32 10.72-1.24-4.66 16.58-83.8-2.66-15.09-79.4 48.25-21.19 4.66 46.73-66.48 15.16-14.05-95.59 14.48-18.81-3.69 83.52-56.41 15.86-9.9-112.62-29.18 109.83-9.38 16.61-8.97-18.3-15.56-64.95-39.99-11.4-14.15 125.93 25.94 24.68-1.19-3.57-18.37-36.26-64.54-6.92-11 36.61 20.07 68.11 53.92 7.87 3.28 12.2-9.77 38.45-75.67-3.16 23.33 5.32 87.63" style="fill:#e64980" transform="matrix(1.22127 .74986 -.8589 .80562 510.58 436.46)"/><path d="m-11.703-19.229 53.522-43.392 19.08-15.139L43.7-22.52l-5.45 7.34 1.77 6.8 22.75-1.3 75.25-23.83 8.98-.69-61.63 52.29-4.59 4.96 80.76 12.89 5.68 7.54-26.72 5.1-49.82 9.69-9.11 4.05 60.27 46.98-1.66 5.45.29-1.62-18.81 4.36-49.24-15.13-13.21 3.35 57.59 56.8-88.57-26.78-25.18-4.03 13.98 19.07 19.797 39.135 10.99 22.87 6.01 17.51-2.11 2.37-24.04-13.17-63.627-52.455-12.48-6.41-.29 2.42-4.71 16.89-19.99 67.21-.22-15.8-14.82-34.42-10.49-27.18-5.52-10.71-42.81 72.41-7.32 10.72-1.24-4.66 16.58-83.8-2.66-15.09-69.279 33.654-21.19 4.66 41.165-59.329 3.523-14.692-66.892 11.368-18.81-3.69L-211.5 65.37l4.439-13.013L-308.26 26.29l109.83-9.38 8.626-10.193L-200.12-7.62l-62.025-43.091-11.4-14.15L-150.54-35.82l24.68-1.19-3.57-18.37-36.26-64.54-6.92-11 36.61 20.07 62.667 65.701 7.87 3.28 12.2-9.77 38.45-75.67-3.16 23.33 5.32 87.63" style="fill:#ef89ae" transform="matrix(.87274 .53586 -.61378 .57571 481.741 437.382)"/><path d="M-4.97-27.75C5.8-35.27 48.41-68.44 58.72-74.5c10.31-6.05 1.06-.07-1.82 10.42-2.89 10.5-15.6 43.55-15.48 52.54.11 8.99-1.24 4.72 16.16 1.41 17.41-3.32 75.07-19.76 88.27-21.3 13.2-1.54.64 3.4-9.07 12.05-9.71 8.64-43.85 32.35-49.19 39.82-5.34 7.46 4.48 1.95 17.14 4.95 12.67 3 51.72 9.62 58.84 13.06 7.12 3.43-2.51 3.47-16.13 7.57C133.81 50.11 90.79 57.98 81.82 63c-8.98 5.02 1.41 5.47 11.76 13.14 10.35 7.68 44.35 26.48 50.34 32.92 5.99 6.44-1.28 6.9-14.42 5.71-13.13-1.19-54.93-12.8-64.39-12.84-9.46-.04-.6 3.7 7.63 12.61 8.23 8.9 36.38 33.28 41.76 40.82 5.39 7.53 8.08 8.25-9.45 4.4-17.53-3.86-80.89-25.11-95.72-27.56-14.83-2.45-1.57-.8 6.73 12.85 8.29 13.66 38.47 57.53 43.02 69.09 4.56 11.56.83 8.24-15.67.27-16.51-7.96-67.43-42.29-83.36-48.09-15.93-5.8-7.39.47-12.22 13.28-4.83 12.8-13.02 55.07-16.78 63.56-3.76 8.48-.11.18-5.79-12.66-5.67-12.83-21.7-55.7-28.26-64.36-6.55-8.66-2.49-.51-11.07 12.4-8.58 12.92-33.65 59.86-40.4 65.11s-2.43-17.16-.09-33.62c2.34-16.47 14.5-54.59 14.11-65.17-.38-10.59.7-5.69-16.41 1.67-17.11 7.35-74.03 38.69-86.25 42.47-12.21 3.77 3.18-7.19 12.96-19.81 9.79-12.62 39.81-45.96 45.75-55.93 5.94-9.97 6.84-5.71-10.11-3.91-16.94 1.8-77.63 14.56-91.55 14.7-13.91.14-5.1-3.89 8.08-13.86 13.17-9.98 60.31-36.7 70.99-45.99 10.68-9.29 8.26-3.89-6.93-9.74-15.18-5.86-72.14-20.42-84.18-25.4-12.04-4.99-6.29-1.41 11.94-4.5 18.23-3.08 82.49-9.61 97.43-14.03 14.94-4.43 6.48-1.29-7.81-12.51-14.29-11.23-68.2-45.77-77.91-54.84-9.71-9.07-2.78-2.8 19.65.42 22.43 3.22 93.61 17.12 114.92 18.89 21.31 1.77 18.35 6.1 12.93-8.29-5.42-14.39-41.21-66-45.43-78.06-4.23-12.06 3.16-4.99 20.08 5.69 16.92 10.67 64.9 48.42 81.45 58.37 16.55 9.95 8.84 13.82 17.87 1.33 9.03-12.5 29.57-67.2 36.3-76.3 6.73-9.1 1.76 3.96 4.09 21.7s8.38 71.12 9.89 84.76m2.62-1.39c10.71-8.37 48.35-44.15 57.65-49.5 9.31-5.36.63 5.6-1.84 17.37-2.46 11.77-12.66 44.72-12.94 53.25-.27 8.52-5.25 1.96 11.26-2.08 16.52-4.04 73.67-20.3 87.82-22.15 14.15-1.86 6.35 2.19-2.89 11.04S92.55 11.74 86.43 20.27c-6.12 8.53 2.54 6.25 15.83 9.13 13.29 2.89 56.33 5 63.9 8.16 7.58 3.16-5.06 6.61-18.46 10.81-13.39 4.19-52.94 9.93-61.92 14.34-8.98 4.4-1.6 4.41 8.04 12.08 9.63 7.67 43.81 27.66 49.79 33.93 5.97 6.27-1.03 4.45-13.93 3.68-12.89-.77-53.57-8.88-63.44-8.28-9.87.59-3.37 3.38 4.22 11.86 7.6 8.48 35.96 31.45 41.36 39.04 5.41 7.6 8.05 9.68-8.94 6.52-16.98-3.15-78.06-23.46-92.98-25.45-14.92-1.98-4.8-.14 3.46 13.56 8.26 13.7 40.96 58.24 46.09 68.64 5.14 10.41 2 2.79-15.28-6.21s-71.62-42.36-88.42-47.8c-16.8-5.44-8.68 1.94-12.39 15.16-3.71 13.22-7.29 55.64-9.86 64.17-2.57 8.54 0 .39-5.54-12.95-5.54-13.35-20.8-57.72-27.71-67.11-6.9-9.39-5.13-2.3-13.71 10.77-8.58 13.07-32 61.22-37.77 67.65-5.77 6.44 1.31-13.38 3.14-29.04 1.84-15.66 8.68-54.89 7.87-64.93-.82-10.04 3.92-2.4-12.75 4.68-16.68 7.08-75.05 34.1-87.3 37.79-12.26 3.7 4.26-3.05 13.77-15.61 9.51-12.56 38.43-49.59 43.29-59.74 4.86-10.16 2.71-2.57-14.13-1.18-16.85 1.4-73.06 9.88-86.93 9.54-13.87-.34-9.79-1.64 3.73-11.58s66.11-38.71 77.41-48.05c11.29-9.34 7.03-2.3-9.63-7.99s-77.7-21.14-90.33-26.17c-12.64-5.03-4.66-1.17 14.53-4 19.2-2.83 84.39-8.52 100.65-12.99 16.25-4.46 10.67-2.12-3.13-13.82-13.79-11.7-69.89-47.06-79.66-56.39-9.76-9.33-1.04-3.49 21.07.42 22.12 3.9 91.12 21.46 111.61 23.04 20.5 1.57 16.92 1.21 11.35-13.6-5.57-14.81-40.81-63.05-44.78-75.26-3.96-12.2 4.21-8.49 20.97 2.04 16.76 10.54 63.1 50.84 79.59 61.18 16.49 10.35 9.37 13.18 19.35.92 9.98-12.27 34.35-65.2 40.52-74.53 6.18-9.33-3.94 1.61-3.46 18.53.49 16.91 5.07 68.03 6.38 82.94" style="fill:none;stroke:#000;stroke-width:3.97px" transform="matrix(1.22127 .74986 -.8589 .80562 510.58 436.46)"/><path d="m3.52 3.67-98.11 266.18-12.83 29.81 6.39 17.81 15.2 18.78 15.75-4.03 17.13 5.09 22.37-1.68L80.45 150.39l28.04-55.38 16.24-31.77-2.23-21.64-1.14-6.66-1.96-10.65L78.66 2.02l-12.7-4.44L38.2-7.99l-8.79 1.36-32.45 8.06" style="fill:#fff" transform="rotate(7.316 -606.374 3845.866) scale(1.04368)"/><path d="M5.06 27.91c6.52-5.49 12.66-9.59 21.51-23.54M5.26 32.14c7.01-7.91 16.34-20.61 22.9-28.98M12.64 38.28C19.57 24.51 28.7 21.25 33.8 7.61M9.37 35.15C17.6 26.68 28.18 14.81 34.4 6.14m-17.22 34C23.75 34 32.32 22.78 43.25 7.34M12.53 45.09c10.32-8.81 15.1-18.26 34.94-39.4M22.99 47.67c6.2-6.15 10.33-18.64 37.96-42.53M23.19 45.75C32.71 32.87 46.4 18.52 59.46 6.72M32.45 47.81c6.48-3.15 11.02-21.17 32.95-39.99M31.22 48.97c5.59-5.8 14.51-18.61 37.3-44.59M39.1 54.22c8.69-15.01 15.73-24.7 37.05-46.57M37.24 52.32C48.46 39.29 63.26 26.09 79.7 4.07M43.49 51.8C54.1 44.01 64.75 32.55 90.86 4.37m-46.1 51.01C53.78 42.39 65.43 35.3 90.28 7.17M53.7 60.44C66.17 45.32 71.83 37.62 95.25 4.5M56.89 55.26C65.21 46.3 72.4 37.4 95.93 10.12M67.81 56.01c5.44-5.66 15.86-22.85 35.08-43.25M67.13 55.29c14.32-14.51 25.35-28.5 39.66-43.7M75.72 56.6c15.52-14.67 21.13-21.29 41.3-42.25M77.36 55.08c12.92-13.05 25.6-28.82 36.13-40.59m-23.1 37.29c17.26-11.31 20.16-23.7 32.66-37.05M93.4 51.49c8.46-6.97 11.63-17.53 30.59-33.97m-13.67 22.64c7.99-5.7 12.69-11.25 18.86-16.8m-21.5 20.54c6.92-8.17 12.31-12.46 20.65-21.25" style="fill:none;fill-rule:nonzero;stroke:#ced4da;stroke-width:1px" transform="matrix(.90106 .52664 -.52664 .90106 502.054 92.448)"/><path d="M-5.93 23.13c1.77-3.97 1.09-11.54 12.09-13.64m-13.5 12.44c3.1-5.3 5.78-9.61 9.96-13.02m-15.85 34.63c6.2-11.07 8.09-16.41 23.65-31.42M-15.8 42.08c3.56-6.99 11.55-12.36 23.99-28.27m-32.56 48.45c13.34-11.4 18.32-19.71 34.67-35.42m-32.19 35.32c9.86-12.17 19.04-22.35 31.6-39.93m-38.72 63.86c12.58-20.72 26.9-39.83 42.9-55.9m-43.07 52.78C-12.2 64.4 2.31 48.84 16.21 27.96m-49.36 71.13c12.69-18.22 29.24-36.31 59.49-63.96m-62.84 66.25c14.88-13.02 24.98-28.05 61.44-67.17m-71.59 88.88c33.66-36.05 58.76-67.17 76.98-84.71m-72.45 84.51C-24.88 102.86-4.81 79.34 32.92 37m-84.16 108.18C-13.19 99.7 23.43 60.23 41.67 37.67m-93.48 107.67c32.02-37.28 64.18-75 88.15-102.59m-91.16 121.96c30.88-43.87 73.13-89.51 101.5-118.96M-57.56 166.2c19.42-25.13 43.37-47.62 101.24-119.71M-67.45 184.81C-26.88 136.1 19.57 87.17 54.44 46.39M-65.67 186.33c44.19-44.66 82.37-94.5 117.36-138.21M-73.04 208.09c40.68-53.29 87.58-103.7 135.1-155.27M-72.87 206.13C-30.84 159.3 9.59 113 58.82 51.29M-77.79 229.05c31.71-36.54 55.71-72.68 147.41-175.08M-78.64 225.63c32.91-42.45 68.99-82.97 148.57-169.1m-159.84 191.8C-29.86 181.69 32.73 113.31 75.05 57.68M-86.8 246.83C-29.52 181.2 25.52 115.29 75.01 56.89M-92.46 262.47c68.89-73.72 141.33-151.4 179.74-201.31M-93.37 264.75C-45.31 206.17 3.35 149.16 82.88 61.49M-107.53 296c68.18-81.2 133.7-153.25 198.25-233.5m-196.07 231.81c44.54-50.19 87.88-101.49 198.46-228.64m-194 235.39c71.58-82.4 143.94-162.82 199.18-231.9m-201.08 231.25c70.19-75.4 134.68-151.32 202.6-234.65m-198.2 239.03c79.34-92.15 162.82-187.32 221.52-252.51M-97.69 308.17c68.7-84.19 137.17-164.42 222.36-255.04M-90.89 313.97C-26.05 233.3 46.49 156.96 109.1 86.65M-91.63 313.31c74.12-87 149.64-175.34 199.75-230.78M-84.35 318.47c58.74-71.99 119.36-146.8 172.13-200.44M-86.26 317.36c57.54-65.42 116.49-132.3 175.1-200.57M-81.48 322.2c40.15-45.85 74.46-85.05 159.59-175.81M-81.04 324.74c47.68-58.93 98.02-115.1 155.41-180.01m-147 180.54c31.09-33.2 59.73-63.84 127.19-141.85M-76.03 327.54c26.05-29.89 51.7-63.08 131.73-146.02m-123.79 148.4c31.53-31.32 56.06-63.7 105.59-110.93M-64.84 330.63c26.7-31.73 56.03-65.28 98.97-115.14m-89.08 115.17c17.92-19.14 37.22-45.66 71.39-74.7m-72.87 76.36c17.05-22.34 31.77-39.13 71.61-80.18m-56.28 76.95c10.09-11.87 18.28-24.19 33.34-42.25m-36.65 45.75c7.45-7.49 14.75-19.5 38.87-44.32" style="fill:none;stroke:#ced4da;stroke-width:1px" transform="rotate(7.316 -642.311 3861.796) scale(1.04368)"/><path d="M93.69 4.29c9.57 1.37 20.52 3.45 25.68 7.45s5.84 11.79 5.27 16.57c-.58 4.77-3.42 8.65-8.72 12.09-5.31 3.43-14.33 6.17-23.12 8.51-8.79 2.34-19.71 5.31-29.62 5.53-9.9.22-20.87-1.58-29.81-4.21-8.95-2.62-18.15-7.73-23.84-11.54-5.7-3.82-10.3-6.97-10.32-11.35-.03-4.38 5.1-10.72 10.18-14.92 5.08-4.19 11.08-8.2 20.28-10.26C38.88.11 52.37-.7 64.6.07c12.24.78 31.34 5.36 38.49 6.74 7.14 1.39 4.74 1.63 4.36 1.56m-87.18 1.64C26.75 6.04 34.78-.11 44.72-1.22 54.66-2.34 69.9 1.8 79.93 3.31c10.03 1.5 18.05 1.85 24.98 4.49 6.93 2.65 12.94 7.49 16.6 11.4 3.67 3.91 7.47 8.09 5.39 12.07-2.08 3.97-9.56 8.07-17.84 11.8-8.27 3.72-21.83 9.33-31.8 10.53-9.97 1.19-18.41-1.91-28.02-3.34-9.61-1.44-21.41-2.21-29.66-5.27-8.25-3.06-17.3-9.33-19.84-13.09-2.54-3.76 1.16-5.51 4.61-9.48C7.8 18.44 18.41 10.38 20.43 8.06c2.03-2.33-4.51-.29-3.93.4" style="fill:none;fill-rule:nonzero;stroke:#000;stroke-width:4.72px" transform="matrix(.90106 .52664 -.52664 .90106 502.054 92.448)"/><path d="M1.89.96c-15.46 44.51-76.77 216.03-94.15 265.13-17.39 49.11-12.56 20.04-10.15 29.48 2.42 9.45 14.2 22.33 24.63 27.21 10.43 4.87 27.59 6.63 37.97 2.04 10.38-4.58-1.41 14.18 24.3-29.54C10.21 251.55 97.17 100.71 114.46 62.47c17.3-38.24-10.7 8.17-26.2 3.38-15.5-4.8-51.98-21.15-66.8-32.15C6.65 22.69 3.05 5.66-.63-.18m.11-.81C-16.33 42.9-77.04 212.63-94.09 262.6c-17.04 49.97-11.7 25.87-8.71 36.23 3 10.37 15.43 21.7 26.68 25.97 11.24 4.26 30.33 4.96 40.82-.36 10.48-5.32-2.98 11.3 22.09-31.59C11.87 249.96 97.45 104.91 115.15 67.11c17.7-37.8-6.03 4.81-22.17-1.06-16.14-5.87-59.31-22.93-74.67-34.16C2.95 20.66 3.92 3.92.83-1.34" style="fill:none;stroke:#000;stroke-width:4.2px" transform="rotate(7.316 -642.311 3861.796) scale(1.04368)"/></svg>